<?xml version="1.0" encoding="UTF-8" standalone="no"?><svg width="400" height="245" viewBox="0 0 400 245" version="1.1" id="svg32" xmlns="http://www.w3.org/2000/svg" ><defs id="defs36" /><line x1="155" y1="30" x2="155" y2="150" stroke="#1B2A41" stroke-width="6" stroke-linecap="round" id="line2" /><line x1="245" y1="30" x2="245" y2="150" stroke="#1B2A41" stroke-width="6" stroke-linecap="round" id="line4" /><line x1="147" y1="60" x2="155" y2="60" stroke="#1B2A41" stroke-width="1.5" opacity="0.55" id="line6" /><line x1="147" y1="90" x2="155" y2="90" stroke="#1B2A41" stroke-width="1.5" opacity="0.55" id="line8" /><line x1="147" y1="120" x2="155" y2="120" stroke="#1B2A41" stroke-width="1.5" opacity="0.55" id="line10" /><line x1="154" y1="29" x2="246" y2="151" stroke="#C46A45" stroke-width="1.5" stroke-dasharray="5 4" opacity="0.9" id="line12" /><circle cx="160" cy="42" r="4" fill="#C46A45" id="circle14" /><circle cx="175" cy="52" r="4.5" fill="#C46A45" id="circle16" /><circle cx="183" cy="75" r="5" fill="#C46A45" id="circle18" /><circle cx="201" cy="88" r="5" fill="#C46A45" id="circle20" /><circle cx="208" cy="110" r="5.5" fill="#C46A45" id="circle22" /><circle cx="225" cy="118" r="6" fill="#C46A45" id="circle24" /><circle cx="233" cy="140" r="6" fill="#C46A45" id="circle26" /><g aria-label="NEREA C. PALMA" id="text28" style="font-weight:500;font-size:17px;font-family:Inter;letter-spacing:6;text-anchor:middle;fill:#1b2a41"><path d="m 94.480957,198 h 1.91748 v -6.59912 c 0,-0.63916 -0.06641,-1.91748 -0.141113,-3.46973 0.896485,1.66016 1.369629,2.51514 1.975586,3.48633 L 102.4082,198 h 2.19141 v -12.36816 h -1.91748 v 7.03906 c 0,0.71387 0.0332,1.86767 0.12451,3.06299 -0.54785,-1.18702 -1.104,-2.125 -1.48584,-2.73926 l -4.656738,-7.36279 h -2.183105 z" id="path38" /><path d="m 113.33887,198 h 7.83593 v -1.62695 h -5.94335 v -3.81006 h 5.47851 v -1.61865 h -5.47851 v -3.68555 h 5.89355 v -1.62695 h -7.78613 z" id="path40" /><path d="m 129.59033,198 h 1.89258 v -4.67334 h 2.52344 c 0.0332,0 0.0747,0 0.10791,0 L 136.62109,198 h 2.14991 l -2.72266,-4.99707 c 1.50244,-0.56445 2.25781,-1.82617 2.25781,-3.48633 0,-2.28271 -1.41943,-3.88476 -4.2832,-3.88476 h -4.43262 z m 1.89258,-6.29199 v -4.45752 h 2.32422 c 1.82617,0 2.58154,0.87158 2.58154,2.26611 0,1.38623 -0.75537,2.19141 -2.56494,2.19141 z" id="path42" /><path d="m 146.60547,198 h 7.83594 v -1.62695 h -5.94336 v -3.81006 h 5.47851 v -1.61865 h -5.47851 v -3.68555 h 5.89355 v -1.62695 h -7.78613 z" id="path44" /><path d="m 161.91064,198 h 2.0503 l 1.104,-3.26221 h 4.86426 L 171.06641,198 h 2.05029 l -4.48242,-12.36816 h -2.32422 z m 3.69385,-4.83936 0.68897,-2.04199 c 0.30713,-0.94629 0.68896,-2.23291 1.17041,-4.00097 0.48974,1.75146 0.86328,3.01318 1.19531,4.00097 l 0.71387,2.04199 z" id="path46" /><path d="m 196.58008,198.16602 c 2.73096,0 4.72314,-1.72657 5.10498,-4.1753 h -1.90918 c -0.31543,1.57715 -1.63526,2.44873 -3.1792,2.44873 -2.1167,0 -3.71045,-1.61035 -3.71045,-4.61523 0,-2.98828 1.58545,-4.63184 3.71045,-4.63184 1.54394,0 2.86377,0.86328 3.1792,2.44043 h 1.90088 c -0.41504,-2.62304 -2.49024,-4.16699 -5.09668,-4.16699 -3.2041,0 -5.56983,2.39063 -5.56983,6.3584 0,3.95117 2.35743,6.3418 5.56983,6.3418 z" id="path48" /><path d="m 211.12158,198.12451 c 0.68067,0 1.22022,-0.53955 1.22022,-1.22021 0,-0.68897 -0.53955,-1.22852 -1.22022,-1.22852 -0.68896,0 -1.22851,0.53955 -1.22851,1.22852 0,0.68066 0.53955,1.22021 1.22851,1.22021 z" id="path50" /><path d="m 231.42236,198 h 1.89258 v -4.33301 h 2.52344 c 2.87207,0 4.2998,-1.73486 4.2998,-4.01758 0,-2.28271 -1.41943,-4.01757 -4.2832,-4.01757 h -4.43262 z m 1.89258,-5.93506 v -4.81445 h 2.32422 c 1.83447,0 2.58154,1.00439 2.58154,2.39892 0,1.39454 -0.74707,2.41553 -2.56494,2.41553 z" id="path52" /><path d="m 246.08008,198 h 2.05029 l 1.104,-3.26221 h 4.86426 L 255.23584,198 h 2.05029 l -4.48242,-12.36816 h -2.32422 z m 3.69385,-4.83936 0.68896,-2.04199 c 0.30713,-0.94629 0.68897,-2.23291 1.17041,-4.00097 0.48975,1.75146 0.86328,3.01318 1.19531,4.00097 l 0.71387,2.04199 z" id="path54" /><path d="m 265.0791,198 h 7.49561 v -1.62695 h -5.60303 v -10.74121 h -1.89258 z" id="path56" /><path d="m 280.69141,198 h 1.84277 v -6.65723 c 0,-0.94629 -0.0415,-2.53173 -0.0747,-3.82666 0.47315,1.52735 0.96289,3.07959 1.24512,3.82666 L 286.26953,198 h 1.61865 l 2.53174,-6.65723 c 0.28223,-0.77197 0.79688,-2.36572 1.23682,-3.86816 -0.0249,1.37793 -0.0664,2.95508 -0.0664,3.86816 V 198 h 1.88428 v -12.36816 h -2.80566 l -2.65625,7.09716 c -0.24073,0.68067 -0.63086,2.0586 -0.92139,3.1626 -0.28223,-1.1289 -0.67236,-2.49853 -0.91309,-3.1626 l -2.69775,-7.09716 h -2.78906 z" id="path58" /><path d="m 301.25928,198 h 2.05029 l 1.104,-3.26221 h 4.86426 L 310.41504,198 h 2.05029 l -4.48242,-12.36816 h -2.32422 z m 3.69384,-4.83936 0.68897,-2.04199 c 0.30713,-0.94629 0.68896,-2.23291 1.17041,-4.00097 0.48975,1.75146 0.86328,3.01318 1.19531,4.00097 l 0.71387,2.04199 z" id="path60" /></g><g aria-label="PhD in Political Science" id="text30" style="font-size:12px;font-family:Inter;letter-spacing:2.5;text-anchor:middle;fill:#c46a45"><path d="m 106.80664,225 h 1.11328 v -3.1582 h 1.88086 c 2.0332,0 2.9707,-1.23633 2.9707,-2.79493 0,-1.55273 -0.9375,-2.77734 -2.97656,-2.77734 h -2.98828 z m 1.11328,-4.13672 v -3.61523 h 1.81641 c 1.39453,0 1.92773,0.76757 1.92773,1.79882 0,1.03711 -0.5332,1.81641 -1.91601,1.81641 z" id="path63" /><path d="m 117.89648,221.07422 c 0,-1.11914 0.70899,-1.75781 1.65235,-1.75781 0.91406,0 1.47656,0.60351 1.47656,1.61132 V 225 h 1.06055 v -4.16016 c 0,-1.6582 -0.89649,-2.47265 -2.22071,-2.47265 -0.85546,0 -1.54101,0.3457 -1.96875,1.21875 v -3.31641 H 116.8418 V 225 h 1.05468 z" id="path65" /><path d="m 129.29102,225 c 2.66015,0 4.16601,-1.65234 4.16601,-4.38281 0,-2.70703 -1.50586,-4.34766 -4.05469,-4.34766 h -2.83593 V 225 Z m -1.61133,-0.98438 v -6.76171 h 1.64648 c 2.02149,0 3.05274,1.26562 3.05274,3.36328 0,2.12109 -1.03125,3.39843 -3.15821,3.39843 z" id="path67" /><path d="m 143.47266,225 h 1.05468 v -6.55078 h -1.05468 z m 0.5332,-7.62305 c 0.4043,0 0.73828,-0.31054 0.73828,-0.69726 0,-0.38672 -0.33398,-0.69727 -0.73828,-0.69727 -0.39844,0 -0.73242,0.31055 -0.73242,0.69727 0,0.38672 0.33398,0.69726 0.73242,0.69726 z" id="path69" /><path d="m 149.93359,221.07422 c 0,-1.11914 0.70899,-1.75781 1.65235,-1.75781 0.91406,0 1.47656,0.60351 1.47656,1.61132 V 225 h 1.05469 v -4.16016 c 0,-1.6582 -0.89063,-2.47265 -2.21485,-2.47265 -0.8789,0 -1.58203,0.36914 -2.0039,1.29492 l -0.006,-1.21289 h -1.01367 V 225 h 1.05468 z" id="path71" /><path d="m 164.47266,225 h 1.11328 v -3.1582 h 1.88086 c 2.0332,0 2.9707,-1.23633 2.9707,-2.79493 0,-1.55273 -0.9375,-2.77734 -2.97656,-2.77734 h -2.98828 z m 1.11328,-4.13672 v -3.61523 h 1.8164 c 1.39453,0 1.92774,0.76757 1.92774,1.79882 0,1.03711 -0.53321,1.81641 -1.91602,1.81641 z" id="path73" /><path d="m 177.10937,225.14062 c 1.78711,0 2.99415,-1.35351 2.99415,-3.375 0,-2.05078 -1.20704,-3.39843 -2.99415,-3.39843 -1.78125,0 -2.98242,1.34765 -2.98242,3.39843 0,2.02149 1.20117,3.375 2.98242,3.375 z m 0,-0.94335 c -1.30664,0 -1.91015,-1.14258 -1.91015,-2.43165 0,-1.30664 0.60351,-2.45507 1.91015,-2.45507 1.32422,0 1.92774,1.15429 1.92774,2.45507 0,1.28907 -0.60352,2.43165 -1.92774,2.43165 z" id="path75" /><path d="m 185.19336,216.26953 h -1.05469 V 225 h 1.05469 z" id="path77" /><path d="m 189.54492,225 h 1.05469 v -6.55078 h -1.05469 z m 0.5332,-7.62305 c 0.4043,0 0.73829,-0.31054 0.73829,-0.69726 0,-0.38672 -0.33399,-0.69727 -0.73829,-0.69727 -0.39843,0 -0.73242,0.31055 -0.73242,0.69727 0,0.38672 0.33399,0.69726 0.73242,0.69726 z" id="path79" /><path d="m 197.5293,218.44922 h -1.34766 v -1.5586 h -1.05469 v 1.5586 h -0.98437 v 0.90234 h 0.98437 v 4.03125 c 0,1.07227 0.66797,1.69922 1.79883,1.69922 0.26953,0 0.56836,-0.041 0.78516,-0.11719 l -0.2168,-0.89062 c -0.17578,0.0352 -0.4043,0.0703 -0.53906,0.0703 -0.55664,0 -0.77344,-0.25781 -0.77344,-0.84375 v -3.94922 h 1.34766 z" id="path81" /><path d="m 201.37695,225 h 1.05469 v -6.55078 h -1.05469 z m 0.53321,-7.62305 c 0.40429,0 0.73828,-0.31054 0.73828,-0.69726 0,-0.38672 -0.33399,-0.69727 -0.73828,-0.69727 -0.39844,0 -0.73243,0.31055 -0.73243,0.69727 0,0.38672 0.33399,0.69726 0.73243,0.69726 z" id="path83" /><path d="m 209.44922,225.14062 c 1.2832,0 2.32617,-0.69726 2.67773,-1.86328 l -1.00781,-0.28711 c -0.19336,0.70899 -0.79102,1.20704 -1.66992,1.20704 -1.30664,0 -1.91016,-1.14258 -1.91016,-2.43165 0,-1.30664 0.60352,-2.45507 1.91016,-2.45507 0.86133,0 1.44726,0.48047 1.64062,1.15429 l 1.01368,-0.28711 c -0.35743,-1.14257 -1.38868,-1.81054 -2.6543,-1.81054 -1.78125,0 -2.98242,1.34765 -2.98242,3.39843 0,2.02149 1.20117,3.375 2.98242,3.375 z" id="path85" /><path d="m 218.08984,225.15234 c 1.10743,0 1.72266,-0.58007 1.94532,-1.04297 h 0.0703 V 225 h 1.03711 v -4.31836 c 0,-2.04492 -1.57617,-2.31445 -2.45508,-2.31445 -1.01367,0 -2.13867,0.36328 -2.64258,1.55273 l 1.01367,0.33399 c 0.20508,-0.45704 0.71485,-0.96094 1.65821,-0.96094 0.9082,0 1.37109,0.46875 1.37109,1.2832 v 0.0352 c 0,0.48633 -0.51562,0.45117 -1.68164,0.59765 -1.21289,0.15235 -2.54883,0.42774 -2.54883,1.92774 0,1.28906 0.99024,2.01562 2.23242,2.01562 z m 0.18164,-0.93164 c -0.78515,0 -1.35351,-0.35156 -1.35351,-1.03125 0,-0.74414 0.67383,-0.99023 1.4414,-1.08984 0.4043,-0.0527 1.55274,-0.16992 1.72852,-0.375 v 0.9082 c 0,0.80274 -0.65039,1.58789 -1.81641,1.58789 z" id="path87" /><path d="m 226.54883,216.26953 h -1.05469 V 225 h 1.05469 z" id="path89" /><path d="m 239.69922,225.15234 c 2.01562,0 3.16992,-1.10156 3.16992,-2.53125 0,-1.6289 -1.53516,-2.15625 -2.47266,-2.41406 l -0.87304,-0.24023 c -0.63867,-0.17578 -1.66407,-0.49805 -1.66407,-1.41211 0,-0.82032 0.75,-1.41797 1.88086,-1.41797 1.03711,0 1.82227,0.48633 1.92188,1.33594 h 1.08984 c -0.0527,-1.31836 -1.2539,-2.32032 -2.97656,-2.32032 -1.6875,0 -3,0.97852 -3,2.45508 0,1.16016 0.82031,1.88086 2.22656,2.2793 l 1.05469,0.29883 c 0.93164,0.26367 1.72852,0.57422 1.72852,1.41797 0,0.93164 -0.90235,1.55273 -2.08594,1.55273 -1.02539,0 -1.93945,-0.45117 -2.02735,-1.44141 h -1.14257 c 0.0996,1.46485 1.27734,2.4375 3.16992,2.4375 z" id="path91" /><path d="m 249.64062,225.14062 c 1.28321,0 2.32618,-0.69726 2.67774,-1.86328 l -1.00781,-0.28711 c -0.19336,0.70899 -0.79102,1.20704 -1.66993,1.20704 -1.30664,0 -1.91015,-1.14258 -1.91015,-2.43165 0,-1.30664 0.60351,-2.45507 1.91015,-2.45507 0.86133,0 1.44727,0.48047 1.64063,1.15429 l 1.01367,-0.28711 c -0.35742,-1.14257 -1.38867,-1.81054 -2.6543,-1.81054 -1.78125,0 -2.98242,1.34765 -2.98242,3.39843 0,2.02149 1.20117,3.375 2.98242,3.375 z" id="path93" /><path d="m 256.33008,225 h 1.05469 v -6.55078 h -1.05469 z m 0.5332,-7.62305 c 0.4043,0 0.73828,-0.31054 0.73828,-0.69726 0,-0.38672 -0.33398,-0.69727 -0.73828,-0.69727 -0.39844,0 -0.73242,0.31055 -0.73242,0.69727 0,0.38672 0.33398,0.69726 0.73242,0.69726 z" id="path95" /><path d="m 264.49023,225.14062 c 1.3418,0 2.32032,-0.67382 2.625,-1.66406 l -1.01953,-0.28125 c -0.24609,0.66797 -0.82617,1.00781 -1.59961,1.00781 -1.16015,0 -1.95703,-0.75 -2.00976,-2.12109 h 4.73437 v -0.43945 c 0,-2.41992 -1.46484,-3.27539 -2.85351,-3.27539 -1.78711,0 -2.94727,1.40039 -2.94727,3.41015 0,2.01563 1.17188,3.36328 3.07031,3.36328 z m -1.99804,-3.94921 c 0.0645,-1.00196 0.75,-1.88672 1.875,-1.88672 1.07812,0 1.68164,0.77343 1.78125,1.88672 z" id="path97" /><path d="m 272.28711,221.07422 c 0,-1.11914 0.70898,-1.75781 1.65234,-1.75781 0.91407,0 1.47657,0.60351 1.47657,1.61132 V 225 h 1.05468 v -4.16016 c 0,-1.6582 -0.89062,-2.47265 -2.21484,-2.47265 -0.87891,0 -1.58203,0.36914 -2.00391,1.29492 l -0.006,-1.21289 h -1.01367 V 225 h 1.05469 z" id="path99" /><path d="m 283.48828,225.14062 c 1.2832,0 2.32617,-0.69726 2.67774,-1.86328 l -1.00782,-0.28711 c -0.19336,0.70899 -0.79101,1.20704 -1.66992,1.20704 -1.30664,0 -1.91016,-1.14258 -1.91016,-2.43165 0,-1.30664 0.60352,-2.45507 1.91016,-2.45507 0.86133,0 1.44727,0.48047 1.64063,1.15429 l 1.01367,-0.28711 c -0.35742,-1.14257 -1.38867,-1.81054 -2.6543,-1.81054 -1.78125,0 -2.98242,1.34765 -2.98242,3.39843 0,2.02149 1.20117,3.375 2.98242,3.375 z" id="path101" /><path d="m 292.93164,225.14062 c 1.3418,0 2.32031,-0.67382 2.625,-1.66406 l -1.01953,-0.28125 c -0.24609,0.66797 -0.82617,1.00781 -1.59961,1.00781 -1.16016,0 -1.95703,-0.75 -2.00977,-2.12109 h 4.73438 v -0.43945 c 0,-2.41992 -1.46484,-3.27539 -2.85352,-3.27539 -1.78711,0 -2.94726,1.40039 -2.94726,3.41015 0,2.01563 1.17187,3.36328 3.07031,3.36328 z m -1.99805,-3.94921 c 0.0645,-1.00196 0.75,-1.88672 1.875,-1.88672 1.07813,0 1.68164,0.77343 1.78125,1.88672 z" id="path103" /></g></svg>