<?xml version="1.0" encoding="UTF-8"?><svg id="Capa_1" xmlns="http://www.w3.org/2000/svg" version="1.1" viewBox="0 0 554.45 238.62"><path d="M450.88,124.76v1.74h48.1v-1.74c-10.66-.87-11.89-1.39-11.89-7.1v-59.61c4.54-4.33,10.67-9.7,18.2-9.7,9.44,0,12.94,5.88,12.94,14.56v54.75c0,5.71-1.21,6.24-9.45,7.1v1.74h45.67v-1.74c-10.68-.87-11.9-1.39-11.9-7.1v-53.54c0-19.06-10.85-25.99-23.45-25.99s-23.79,7.8-32.01,18.2h-.88l.88-56.31h-1.75l-34.46,3.98v1.74c10.67.87,11.9,1.39,11.9,8.15v103.79c0,5.71-1.24,6.24-11.9,7.1M410.25,82.48v30.14c-3.68,2.43-7.18,4.68-11.72,4.68-7,0-10.85-4.68-10.85-14.55,0-12.47,6.48-18.37,22.57-20.27M434.57,115.92v-51.64c.17-14.72-10.5-26.16-31.14-26.16-24.5,0-37.8,18.02-37.8,27.37,0,6.07,4.9,8.5,10.15,8.5,5.77,0,9.79-2.95,9.79-6.76,0-4.85-9.27-6.41-9.27-12.65,0-6.58,7.52-11.43,15.74-11.43,12.95,0,18.2,9.19,18.2,19.93v17.67c-39.02,2.6-47.25,16.63-47.25,27.38s7.35,20.1,20.66,20.1c10.49,0,19.41-5.38,26.23-13.86h.36v2.44c0,6.23,3.67,11.43,12.59,11.43s17.85-4.68,24.85-10.05l-.18-1.21c-2.97,1.73-5.95,3.46-8.4,3.46-2.8,0-4.55-1.56-4.55-4.5M322.64,51.98v56.32c-4.37,3.99-11.02,8.67-20.12,8.67-7.34,0-11.02-4.86-11.02-12.48V38.12h-2.79l-33.43,3.98v1.73c10.68.87,11.9,1.39,11.9,8.15v50.26c0,19.06,10.85,25.99,23.44,25.99s23.8-7.8,32.02-18.19h.88l.53,18.19h1.75l33.06-3.98v-1.74c-10.67-.87-11.9-1.38-11.9-8.14V38.12h-2.8l-36.91,3.98v1.73c14.17.87,15.38,1.39,15.38,8.15"/><g><path d="M539.12,211.49c0-4.19,1.94-6.49,5.4-6.49s5.41,2.3,5.41,6.49-1.93,6.5-5.41,6.5-5.4-2.3-5.4-6.5M535.27,211.49c0,6.12,3.47,9.93,9.26,9.93s9.25-3.81,9.25-9.93-3.46-9.92-9.25-9.92-9.26,3.81-9.26,9.92M526.69,211.49c0,4.59-1.93,6.5-5.01,6.5s-5.02-2.3-5.02-6.5,1.93-6.49,5.02-6.49,5.01,1.91,5.01,6.49h0ZM530.54,220.66v-25.97l-.38-.38h-3.08l-.39.38v9.17h-.38s-1.55-2.29-5.02-2.29c-5.39,0-8.47,4.2-8.47,9.92s3.08,9.93,8.47,9.93c3.47,0,5.02-2.29,5.02-2.29h.38l.39,1.52.39.39h2.7l.38-.39ZM504.49,214.16c0,2.3-1.93,3.82-5.02,3.82-2.31,0-3.47-.76-3.47-2.68s1.54-3.05,5.02-3.05c1.93,0,3.09.38,3.09.38l.38.38v1.14ZM508.35,220.66v-10.69c0-5.74-1.93-8.4-7.72-8.4s-7.71,3.05-7.71,5.73l.39.38h3.08l.39-.38c0-1.53,1.15-2.3,3.86-2.3s3.86.76,3.86,3.45v.76l-.38.38s-1.55-.38-3.48-.38c-5.01,0-8.47,1.91-8.47,6.11,0,3.82,2.31,6.11,6.55,6.11,3.86,0,5.41-2.29,5.41-2.29h.38l.38,1.52.39.39h2.69l.39-.39ZM488.34,220.66v-2.67l-.38-.38h-3.09c-.77,0-1.54-.38-1.54-1.53v-10.32l.39-.38h4.25l.38-.38v-2.67l-.38-.37h-4.25l-.39-.39v-3.44l-.39-.39h-3.07l-.39.39v3.44l-.39.39h-2.7l-.39.37v2.67l.39.38h2.7l.39.38v10.32c0,3.43,2.7,4.96,5.39,4.96h3.09l.38-.39ZM472.72,205v-2.67l-.39-.37h-1.54c-2.69,0-3.86.76-5.02,1.9h-.39l-.38-1.53-.39-.37h-2.69l-.38.37v18.33l.38.39h3.08l.38-.39v-9.54c0-4.58,1.93-5.73,5.01-5.73h1.93l.39-.38ZM455.79,220.66v-18.33l-.39-.37h-3.08l-.39.37v9.16c0,4.59-1.93,6.5-4.62,6.5-3.09,0-3.86-2.3-3.86-4.58v-11.08l-.38-.37h-3.09l-.38.37v11.08c0,4.2,1.92,8.01,7.32,8.01,3.08,0,4.64-2.29,4.64-2.29h.38l.39,1.52.39.39h2.69l.39-.39ZM433.25,220.66v-25.97l-.38-.38h-3.08l-.39.38v10.69l-.38.39h-12.74l-.39-.39v-10.69l-.38-.38h-3.09l-.38.38v25.97l.38.39h3.09l.38-.39v-11.07l.39-.38h12.74l.38.38v11.07l.39.39h3.08l.38-.39ZM381.65,211.49c0-4.19,1.93-6.49,5.4-6.49s5.4,2.3,5.4,6.49-1.93,6.5-5.4,6.5-5.4-2.3-5.4-6.5M377.81,211.49c0,6.12,3.46,9.93,9.25,9.93s9.25-3.81,9.25-9.93-3.47-9.92-9.25-9.92-9.25,3.81-9.25,9.92M374.51,220.66v-2.67l-.38-.38h-3.09c-.78,0-1.54-.38-1.54-1.53v-10.32l.38-.38h4.26l.38-.38v-2.67l-.38-.37h-4.26l-.38-.39v-3.44l-.39-.39h-3.08l-.38.39v3.44l-.39.39h-2.71l-.38.37v2.67l.38.38h2.71l.39.38v10.32c0,3.43,2.69,4.96,5.39,4.96h3.09l.38-.39ZM358.89,205v-2.67l-.39-.37h-1.54c-2.71,0-3.86.76-5.02,1.9h-.38l-.39-1.53-.38-.37h-2.69l-.38.37v18.33l.38.39h3.08l.39-.39v-9.54c0-4.58,1.93-5.73,5.02-5.73h1.92l.39-.38ZM334.55,221.42c4.63,0,7.33-2.67,7.71-5.73l-.38-.38h-3.09l-.39.38c-.77,1.91-2.31,2.3-3.86,2.3-4.63,0-5.01-3.82-5.01-4.58l.39-.38h12.72l.39-.38v-1.15c0-5.34-2.7-9.92-8.87-9.92s-8.86,4.59-8.86,9.92c0,5.74,3.08,9.93,9.25,9.93M338.41,209.97h-8.49l-.39-.38c0-1.14.39-4.58,4.63-4.58s4.63,3.44,4.63,4.58l-.39.38ZM317.72,211.49c0,4.2-1.92,6.5-5.01,6.5s-5.02-1.91-5.02-6.5,1.94-6.49,5.02-6.49,5.01,2.3,5.01,6.49M321.58,211.49c0-6.11-3.47-9.92-8.49-9.92-3.47,0-5.02,2.29-5.02,2.29h-.39v-9.17l-.38-.38h-3.07l-.39.38v25.97l.39.39h2.69l.39-.39.38-1.52h.39s1.55,2.29,5.02,2.29c5.02,0,8.49-4.19,8.49-9.93h0ZM298.12,220.66v-25.97l-.39-.38h-3.07l-.39.38v25.97l.39.39h3.07l.39-.39ZM282.84,210.73l-.38.38h-8.1l-.39-.38,4.24-10.69h.38l4.25,10.69ZM289.79,220.66v-2.68l-9.26-23.29-.39-.38h-3.47l-.39.38-9.25,23.29v2.68l.38.39h2.31l.39-.39,2.32-5.73.77-.38h10.42l.77.38,2.31,5.73.38.39h2.32l.39-.39Z"/><path d="M468.67,170.69c0,4.59-1.93,6.5-5.02,6.5s-5.01-2.29-5.01-6.49,1.93-6.49,5.01-6.49,5.02,1.91,5.02,6.49h0ZM472.53,179.86v-25.97l-.38-.38h-3.09l-.38.38v9.17h-.38s-1.55-2.3-5.03-2.3c-5.39,0-8.47,4.2-8.47,9.93s3.08,9.93,8.47,9.93c3.48,0,5.03-2.28,5.03-2.28h.38l.38,1.52.39.38h2.69l.38-.38ZM446.47,173.37c0,2.29-1.93,3.82-5.01,3.82-2.32,0-3.47-.77-3.47-2.67s1.54-3.06,5.02-3.06c1.93,0,3.08.39,3.08.39l.39.38v1.15ZM450.33,179.86v-10.69c0-5.73-1.93-8.41-7.71-8.41s-7.71,3.05-7.71,5.74l.38.38h3.09l.39-.38c0-1.54,1.15-2.3,3.86-2.3s3.86.76,3.86,3.43v.77l-.39.38s-1.54-.38-3.47-.38c-5.02,0-8.49,1.9-8.49,6.11,0,3.83,2.31,6.11,6.56,6.11,3.86,0,5.4-2.28,5.4-2.28h.39l.38,1.52.38.38h2.7l.39-.38ZM425.55,170.69c0,4.59-1.92,6.5-5.01,6.5s-5.02-2.29-5.02-6.49,1.93-6.49,5.02-6.49,5.01,1.91,5.01,6.49h0ZM429.4,179.86v-25.97l-.38-.38h-3.08l-.39.38v9.17h-.38s-1.54-2.3-5.02-2.3c-5.4,0-8.48,4.2-8.48,9.93s3.08,9.93,8.48,9.93c3.48,0,5.02-2.28,5.02-2.28h.38l.39,1.52.38.38h2.7l.38-.38ZM406.97,179.86v-18.32l-.38-.38h-3.08l-.39.38v18.32l.39.38h3.08l.38-.38ZM406.97,157.71v-3.06l-.38-.37h-3.08l-.39.37v3.06l.39.39h3.08l.38-.39ZM398.39,174.9c0-3.44-1.92-4.98-5.77-5.73-3.86-.77-5.41-1.14-5.41-3.06,0-1.53,1.55-1.91,3.48-1.91,2.69,0,3.47,1.15,3.47,2.3l.38.37h3.09l.38-.37c0-3.83-3.08-5.74-7.32-5.74-5.41,0-7.33,2.67-7.33,5.35,0,3.44,2.31,4.96,6.17,5.74,3.86.75,5.01,1.14,5.01,3.05,0,1.52-1.16,2.29-3.85,2.29s-3.86-1.15-3.86-3.06l-.38-.38h-3.09l-.39.38c0,4.21,2.7,6.49,7.72,6.49,5.39,0,7.7-2.66,7.7-5.72M379.74,164.2v-2.67l-.38-.38h-1.55c-2.69,0-3.85.76-5.02,1.91h-.38l-.38-1.53-.39-.38h-2.69l-.38.38v18.32l.38.38h3.08l.38-.38v-9.55c0-4.58,1.93-5.72,5.02-5.72h1.93l.38-.38ZM355.41,180.62c4.63,0,7.32-2.66,7.71-5.73l-.39-.38h-3.08l-.39.38c-.77,1.92-2.31,2.29-3.86,2.29-4.62,0-5.02-3.82-5.02-4.59l.4-.38h12.72l.38-.38v-1.15c0-5.35-2.69-9.93-8.86-9.93s-8.86,4.59-8.86,9.93c0,5.72,3.08,9.93,9.25,9.93M359.26,169.17h-8.48l-.4-.38c0-1.16.4-4.59,4.63-4.59s4.63,3.43,4.63,4.59l-.39.38ZM343,164.21v-2.68l-.38-.38h-2.31l-.38.38-5.4,13.36h-.39l-5.4-13.36-.38-.38h-2.32l-.38.38v2.68l6.55,15.65.39.38h3.47l.39-.38,6.55-15.65ZM321.35,179.86v-18.32l-.39-.38h-3.08l-.38.38v18.32l.38.38h3.08l.39-.38ZM321.35,157.71v-3.06l-.39-.37h-3.08l-.38.37v3.06l.38.39h3.08l.39-.39ZM311.98,179.86v-11.08c0-4.58-1.93-8.02-7.32-8.02-3.47,0-5.02,2.3-5.02,2.3h-.38l-.39-1.53-.39-.38h-2.69l-.39.38v18.32l.39.38h3.08l.39-.38v-9.16c0-4.59,1.53-6.49,5.01-6.49s3.85,2.67,3.85,4.58v11.08l.39.38h3.08l.39-.38ZM288.91,153.89l-.38-.38h-3.09l-.38.38v16.8c0,3.82-1.93,6.49-6.56,6.49s-6.57-2.67-6.57-6.49v-16.8l-.38-.38h-3.08l-.4.38v16.8c0,6.11,3.85,9.93,10.42,9.93s10.4-3.81,10.4-9.93v-16.8Z"/><path d="M139.24,187.44c0,.2,5.16,3.65,5.29,10.55,0,.53.09,2.31-.01,4.29-.04.72.07,1.4.21,1.75,0,0,.23-.09.3-.24.2-.4.78-1.13.8-1.53,2.32-33.03,23.45-48.5,31.02-54.45.22-.17-.36.95-.36.95-5.7,6.44-21.15,17.28-27.15,46.92-.04.16.26-.01.4-.24,1.76-3.06,9.66-10.67,14.09-12.93.38-.2-3.86-1.38-6.67-.59,2.19-1.86,5.65-2.71,9.32-2.36.37.04,13.32-9.99,19.12-17.4,6.81-8.71,11.19-22.38,11.16-23.95,0-.47-4.25,4.55-7.37,4.6,6.6-8.62,7.84-16.4,6.72-15.99-11.85,4.83-26.96,14.64-38.76,26.79-.14.14-2.18,2.31-2.77,2.88,0,0-10.04,10.89-12.61,20.84-.07.28,3.28,2.08,3.35,5.72,0,0-2.04-.97-4.84-.92-.55.01,2.98,1.83,3.05,5.33-1.46-.51-4.28-.21-4.27-.01"/><path d="M113.32,164.35l-5.64-.39c-3.01-.21-6.03-.41-9.04-.62-.55-.04-1.11-.08-1.66-.11-.05-.5-.11-1-.19-1.5.54-.2,1.07-.43,1.55-.75.57-.37,1.09-.79,1.73-1.04.72-.27,1.41-.35,2.17-.39.73-.03,1.43-.17,2.12-.4.65-.21,1.28-.49,1.85-.87.57-.39,1.1-.79,1.75-1.04.71-.27,1.41-.39,2.17-.42.76-.03,1.47-.16,2.19-.4.23-.08.38-.31.31-.55-.06-.21-.12-.43-.17-.64-.07-.25-.31-.35-.55-.31-.81.14-1.55.07-2.36.02-.7-.05-1.42.04-2.1.2-1.37.31-2.49,1.17-3.87,1.41-.75.13-1.45.02-2.2-.02-.68-.04-1.37.05-2.04.19-.66.14-1.29.35-1.89.64-.53.25-1.03.52-1.59.68-.24-.68-.52-1.35-.82-2.01,1.45-.97,2.9-1.95,4.34-2.92,2.5-1.69,5.01-3.37,7.51-5.06l1.72-1.16c.2-.14.29-.39.16-.62-.11-.19-.22-.38-.33-.57-.13-.22-.4-.27-.62-.16-1.69.83-3.38,1.65-5.07,2.48-2.71,1.33-5.42,2.65-8.13,3.98-.5.24-.99.49-1.49.73-.26-.37-.54-.73-.82-1.09.39-.48.73-1,.95-1.58.26-.68.37-1.38.85-1.96.49-.59,1.08-.82,1.75-1.15.63-.3,1.19-.75,1.66-1.27.46-.5.87-1.08,1.12-1.71.29-.73.4-1.46.9-2.09.51-.65,1.11-.96,1.84-1.3.67-.31,1.22-.75,1.72-1.29.17-.18.18-.46,0-.64-.16-.16-.31-.32-.47-.47-.18-.19-.45-.15-.64,0-.61.51-1.26.69-1.99.94-.68.23-1.29.61-1.83,1.08-.54.47-1.01,1.05-1.33,1.69-.35.71-.62,1.34-1.25,1.86-.6.49-1.33.6-2.03.88-.64.25-1.22.65-1.74,1.1-.52.45-.98,1-1.31,1.61-.28.52-.48,1.08-.85,1.53-.58-.5-1.18-.98-1.81-1.42.77-1.57,1.53-3.13,2.3-4.7,1.33-2.71,2.65-5.42,3.98-8.14.3-.62.61-1.24.91-1.86.11-.22.06-.49-.16-.62-.19-.11-.39-.22-.58-.33-.22-.13-.48-.04-.62.16-1.05,1.56-2.1,3.12-3.15,4.68-1.69,2.5-3.37,5.01-5.06,7.51-.31.46-.62.92-.93,1.38-.41-.19-.83-.37-1.25-.54.09-.61.13-1.23.03-1.84-.11-.72-.37-1.38-.25-2.12.13-.72.48-1.21.89-1.79.41-.6.7-1.29.86-2,.16-.72.21-1.48.09-2.21-.13-.75-.36-1.42-.23-2.19.13-.76.49-1.34.92-1.96.43-.61.69-1.26.85-1.98.05-.24-.07-.49-.31-.55-.22-.06-.43-.12-.65-.17-.25-.07-.47.08-.55.31-.26.71-.69,1.19-1.19,1.74-.49.54-.84,1.16-1.08,1.85-.26.72-.38,1.5-.32,2.26.06.74.12,1.38-.13,2.1-.23.66-.69,1.09-1.14,1.6-.48.55-.83,1.18-1.09,1.86-.27.7-.42,1.47-.41,2.21.01.61.13,1.21.03,1.8-.75-.14-1.51-.25-2.28-.32-.12-1.74-.24-3.48-.36-5.22-.21-3.01-.42-6.03-.62-9.04-.05-.69-.1-1.38-.14-2.07-.02-.24-.19-.45-.45-.45h-.67c-.26,0-.43.21-.45.45-.13,1.88-.26,3.76-.39,5.64-.21,3.01-.41,6.03-.62,9.04-.04.55-.08,1.11-.11,1.66-.51.05-1.02.11-1.52.19-.2-.53-.44-1.06-.75-1.54-.38-.57-.79-1.08-1.04-1.73-.27-.72-.35-1.41-.39-2.17-.04-.72-.17-1.43-.4-2.12-.22-.65-.5-1.28-.88-1.85-.39-.57-.79-1.1-1.04-1.76-.27-.71-.39-1.41-.42-2.17-.03-.76-.16-1.46-.4-2.19-.08-.23-.31-.38-.55-.31-.21.06-.43.11-.64.17-.25.07-.35.32-.31.55.14.81.07,1.55.02,2.37-.05.7.04,1.42.2,2.1.31,1.37,1.18,2.49,1.42,3.87.13.74.02,1.45-.02,2.19-.04.68.05,1.37.19,2.03.13.66.35,1.29.64,1.89.25.53.51,1.03.67,1.58-.68.24-1.34.5-1.99.8-.97-1.45-1.95-2.9-2.92-4.34-1.69-2.5-3.37-5.01-5.06-7.51l-1.16-1.72c-.14-.2-.39-.29-.62-.16-.19.11-.38.22-.57.33-.22.13-.27.4-.16.62.83,1.69,1.65,3.38,2.48,5.07,1.33,2.71,2.65,5.42,3.98,8.14.24.5.49,1,.73,1.49-.44.31-.87.64-1.29.99-.49-.4-1-.77-1.56-1.08-.67-.37-1.28-.75-1.85-1.27-.52-.47-.93-1.03-1.36-1.58-.44-.55-.91-1.04-1.44-1.5-1.01-.88-2.28-1.36-3.3-2.23-1.07-.92-1.75-2.2-2.84-3.1-.19-.16-.45-.18-.64,0-.16.16-.32.32-.47.47-.18.18-.16.45,0,.64.92,1.03,1.42,2.36,2.33,3.4.92,1.05,2.13,1.76,3.06,2.79.96,1.07,1.49,2.42,2.43,3.52.48.56,1.01,1.06,1.59,1.51.46.36.92.71,1.32,1.13-.45.52-.87,1.07-1.27,1.63-1.57-.77-3.14-1.53-4.71-2.3-2.71-1.33-5.42-2.65-8.14-3.98-.62-.3-1.24-.61-1.86-.91-.22-.11-.49-.06-.62.16-.11.19-.22.38-.33.57-.13.22-.04.48.16.62,1.56,1.05,3.12,2.1,4.68,3.15,2.5,1.69,5.01,3.37,7.51,5.06.46.31.92.62,1.38.93-.19.41-.37.83-.53,1.25-.62-.09-1.24-.13-1.86-.03-.72.11-1.38.37-2.12.24-.72-.12-1.21-.49-1.79-.89-.6-.41-1.29-.7-2-.86-.72-.16-1.48-.21-2.21-.09-.75.13-1.42.36-2.19.24-.77-.12-1.34-.49-1.96-.93-.61-.43-1.26-.69-1.98-.85-.23-.05-.49.07-.55.31-.06.22-.11.43-.17.65-.06.25.08.47.31.55.71.26,1.19.69,1.74,1.19.54.49,1.16.84,1.85,1.08.72.26,1.5.38,2.26.32.77-.06,1.44-.12,2.18.16.68.25,1.1.76,1.64,1.21.54.45,1.17.78,1.83,1.02.68.25,1.42.39,2.14.38.61-.01,1.21-.13,1.81-.03-.15.76-.25,1.52-.32,2.29-1.74.12-3.48.24-5.22.36-3.01.21-6.03.41-9.04.62-.69.05-1.38.09-2.07.14-.24.02-.45.19-.45.45v.67c0,.26.21.43.45.45,1.88.13,3.76.26,5.64.39,3.01.21,6.03.42,9.04.62l1.66.11c.05.51.11,1.02.19,1.53-.54.2-1.07.44-1.55.76-.57.37-1.09.79-1.73,1.04-.72.27-1.41.35-2.17.38-.7.03-1.38.16-2.05.38-.64.21-1.27.48-1.83.84-.61.4-1.16.83-1.84,1.1-.71.27-1.41.39-2.17.42-.76.03-1.47.16-2.19.39-.23.08-.38.31-.31.55.06.22.12.43.17.65.07.25.32.36.55.31.81-.15,1.55-.07,2.36-.02.7.04,1.41-.04,2.1-.2,1.39-.31,2.54-1.19,3.95-1.43.71-.12,1.4,0,2.11.03.73.04,1.48-.06,2.19-.22.65-.15,1.26-.37,1.85-.66.49-.24.97-.48,1.48-.63.24.67.51,1.33.8,1.98-1.45.97-2.9,1.95-4.34,2.92-2.5,1.69-5.01,3.37-7.51,5.06-.57.39-1.15.77-1.72,1.16-.2.14-.29.39-.16.62.11.19.22.39.33.58.13.22.4.27.62.16,1.69-.83,3.38-1.65,5.07-2.48,2.71-1.33,5.42-2.65,8.14-3.98.5-.24,1-.49,1.49-.73.26.37.53.73.82,1.08-.39.49-.73,1-.96,1.59-.27.68-.37,1.39-.85,1.97-.49.58-1.09.82-1.75,1.15-.64.31-1.23.78-1.7,1.32-.46.51-.85,1.09-1.1,1.73-.28.7-.39,1.41-.87,2.02-.48.61-1.08.96-1.77,1.28-.7.32-1.27.76-1.8,1.32-.17.18-.18.46,0,.64l.47.47c.18.18.45.16.64,0,.61-.51,1.26-.69,1.99-.94.68-.23,1.29-.61,1.83-1.08.54-.47,1.01-1.05,1.33-1.69.35-.72.62-1.35,1.27-1.87.6-.48,1.32-.59,2.02-.86.64-.25,1.23-.65,1.74-1.11.52-.46.98-1.01,1.3-1.61.28-.53.48-1.08.85-1.53.58.51,1.19.98,1.82,1.43-.77,1.57-1.53,3.13-2.3,4.7-1.33,2.71-2.65,5.42-3.98,8.13-.3.62-.61,1.24-.91,1.86-.11.22-.06.49.16.62.19.11.38.22.57.33.22.13.48.04.62-.16,1.05-1.56,2.1-3.12,3.15-4.68,1.69-2.5,3.37-5.01,5.06-7.51.31-.46.62-.92.93-1.38.41.19.83.37,1.25.54-.1.61-.13,1.23-.03,1.85.12.72.38,1.38.25,2.12-.13.72-.48,1.21-.89,1.79-.4.58-.68,1.23-.84,1.92-.16.69-.23,1.43-.13,2.13.11.73.38,1.41.29,2.16-.09.78-.42,1.39-.87,2.02-.46.65-.76,1.32-.93,2.1-.05.24.07.49.31.55.21.06.43.11.64.17.25.07.47-.08.55-.31.26-.71.7-1.19,1.19-1.74.48-.54.84-1.16,1.09-1.85.24-.67.37-1.39.33-2.1-.04-.8-.16-1.49.12-2.26.26-.71.76-1.15,1.24-1.71.44-.52.75-1.12.99-1.75.27-.7.43-1.47.41-2.22-.01-.61-.13-1.21-.03-1.81.76.15,1.52.25,2.29.32.12,1.74.24,3.48.36,5.23.21,3.01.41,6.03.62,9.04.05.69.09,1.38.14,2.07.02.24.19.45.45.45h.67c.26,0,.43-.21.45-.45l.39-5.64c.21-3.01.42-6.03.62-9.04.04-.55.08-1.11.11-1.66.51-.05,1.01-.11,1.51-.19.2.55.44,1.08.76,1.57.37.57.79,1.09,1.04,1.73.27.72.35,1.41.39,2.17.04.72.17,1.43.4,2.12.22.65.5,1.29.87,1.86.38.58.8,1.1,1.05,1.75.27.71.39,1.41.42,2.17.03.76.17,1.47.4,2.2.07.23.31.38.55.31.21-.06.43-.12.64-.17.25-.07.35-.31.31-.55-.14-.81-.07-1.55-.02-2.36.04-.67-.04-1.36-.18-2.02-.29-1.4-1.19-2.55-1.43-3.96-.13-.74-.02-1.45.02-2.19.04-.7-.06-1.42-.2-2.11-.14-.67-.38-1.31-.68-1.93-.24-.5-.48-.97-.63-1.49.68-.24,1.34-.51,2-.81.97,1.45,1.95,2.9,2.92,4.34,1.69,2.5,3.37,5.01,5.06,7.51.39.57.77,1.15,1.16,1.72.14.2.39.29.62.16.19-.11.39-.22.58-.33.22-.13.27-.4.16-.62-.83-1.69-1.65-3.38-2.48-5.07-1.33-2.71-2.65-5.42-3.98-8.13-.24-.5-.49-1-.73-1.49.43-.31.86-.64,1.27-.97.48.4.97.76,1.51,1.06.64.36,1.25.71,1.8,1.21.53.47.95,1.02,1.39,1.57.45.58.94,1.08,1.48,1.57,1.02.91,2.32,1.4,3.35,2.28,1.07.92,1.75,2.2,2.84,3.1.19.16.45.18.64,0,.16-.16.32-.32.47-.47.18-.18.16-.46,0-.64-.92-1.03-1.42-2.35-2.33-3.4-.91-1.06-2.14-1.75-3.06-2.78-.96-1.07-1.49-2.42-2.43-3.52-.48-.56-1.01-1.06-1.59-1.51-.47-.36-.93-.72-1.34-1.14.45-.53.88-1.07,1.28-1.64,1.57.77,3.14,1.53,4.71,2.3,2.71,1.33,5.42,2.65,8.13,3.98.62.3,1.24.61,1.86.91.22.11.49.06.62-.16.11-.19.22-.39.33-.58.13-.22.04-.48-.16-.62-1.56-1.05-3.12-2.1-4.68-3.15-2.5-1.69-5.01-3.37-7.51-5.06-.46-.31-.92-.62-1.38-.93.19-.41.37-.83.54-1.25.61.09,1.23.13,1.84.03.73-.12,1.38-.37,2.12-.25.72.12,1.21.48,1.79.89.58.41,1.24.68,1.93.84.69.16,1.43.24,2.13.13.74-.11,1.41-.37,2.16-.28.78.09,1.38.42,2.02.87.65.46,1.32.76,2.1.93.24.05.49-.07.55-.31.06-.21.12-.43.17-.64.07-.25-.09-.47-.31-.55-.72-.26-1.19-.69-1.74-1.19-.53-.47-1.12-.81-1.78-1.06-.7-.26-1.47-.4-2.21-.35-.78.05-1.46.15-2.22-.12-.66-.24-1.09-.69-1.6-1.14-.55-.48-1.18-.82-1.86-1.08-.7-.26-1.47-.42-2.21-.4-.61,0-1.21.12-1.8.03.14-.76.25-1.52.32-2.29,1.74-.12,3.48-.24,5.23-.36,3.01-.21,6.03-.42,9.04-.62.69-.05,1.38-.1,2.07-.14.06,0,.12-.02.17-.04,0,0,0,0,0,0,0,0,.02,0,.03-.01.14-.06.26-.19.26-.39v-.67c0-.26-.21-.43-.45-.45ZM76.56,149.93l.33.33v.07c0,.64-.09,1.37-.09,1.37l-.31,1.78c.71-.1,3.25-.4,3.84-.4h.08l.33.33-.04,2.29-.33.32h-.07c-.49,0-2.93-.62-3.79-.84l-.42,9.4h2.56v-3.89c0-1.12-.32-1.3-1.33-1.3-.13,0-.52,0-.52-.43v-.4c0-.22.16-.37.39-.37.38,0,.97.03,1.6.05.68.03,1.39.06,1.87.06s1.02-.03,1.53-.06c.46-.03.89-.05,1.24-.05.13,0,.35.05.35.41v.46c0,.19-.15.33-.35.33-1.47,0-1.62.33-1.62,1.72v9.5c0,1.32.09,1.49,1.56,1.49.22,0,.37.14.37.35v.48c0,.23-.13.37-.35.37-.64,0-1.46-.04-2.11-.07-.41-.02-.75-.04-.92-.04-.57,0-1.15.03-1.7.05-.54.03-1.09.05-1.62.05-.17,0-.35-.15-.35-.41v-.37c0-.19.13-.41.48-.41,1.34,0,1.48-.22,1.48-1.15v-4.95h-6.56v4.45c0,1.27,0,1.65,1.39,1.65.15,0,.56,0,.56.37v.41c0,.1,0,.41-.37.41-.41,0-.89-.03-1.39-.05-1.1-.06-2.23-.06-3.29,0-.52.03-1.06.05-1.59.05-.24,0-.4-.16-.4-.41v-.4c0-.24.17-.39.44-.39,1.13,0,1.48-.2,1.48-1.42v-9.72c0-1.17-.07-1.57-1.41-1.57-.35,0-.48-.21-.48-.39v-.48c0-.08.03-.33.5-.33.55,0,1.08.03,1.6.05,1.04.06,1.98.05,2.95,0,.53-.02,1.08-.05,1.7-.05.1,0,.35.04.35.43v.38c0,.24-.15.39-.39.39-.72-.01-1.2.08-1.42.3-.19.18-.22.45-.22.84v4.06h2.79l-.33-9.04v-.37c-.79.21-3.32.86-3.83.86h-.08l-.33-.32-.04-2.29.33-.33h.08c.56,0,3.05.31,3.83.41l-.31-1.76s-.09-.73-.09-1.39v-.07l.33-.33h2.12ZM84.23,169.6h1.17l.05.11c.52,1.27,1.23,2.62,3.23,2.62,1.33,0,2.89-.58,2.89-2.22s-1.44-2.23-3.11-3c-1.94-.89-4.12-1.9-4.12-4.64s2.07-4.61,5.14-4.61c1.37,0,3.32.64,3.73,1.23l.03.04v2.83h-1.29l-.02-.15c-.29-1.75-1.17-2.65-2.64-2.65-1.15,0-2.38.55-2.38,2.09s1.4,2.13,3.02,2.85c1.98.88,4.21,1.87,4.21,4.77,0,3.27-2.84,4.76-5.48,4.76-1.52,0-2.86-.3-4-.88l-.09-.05v-.1c-.06-.61-.14-1.23-.21-1.85-.04-.32-.08-.64-.11-.96l-.02-.2ZM65.77,172.89c0,.19-.08.41-.46.41-.5,0-1-.03-1.49-.05-1.02-.05-2.09-.05-3.11,0-.54.03-1.11.05-1.66.05-.16,0-.33-.12-.33-.31v-.54c0-.1.05-.35.48-.35.97,0,1.43-.17,1.43-1.13v-10.51c0-.98-.4-1.07-1.37-1.07-.46,0-.5-.25-.5-.33v-.48c0-.32.19-.39.35-.39.09,0,.28.01.53.03.54.03,1.44.08,2.43.08.89,0,1.71-.04,2.31-.07.38-.02.68-.04.88-.04.12,0,.46,0,.46.31v.58c0,.31-.41.31-.61.31-.96,0-1.33.3-1.33,1.07v10.51c0,.97.48,1.13,1.56,1.13.38,0,.42.26.42.37v.41Z"/><path d="M131.5,67.03c.24,6.27,5.98,9.39,7.24,9.34,3.17-1.09,5.15-2.31,5.15-2.31.42,1.51,1.25,2.04,1.74,3.05.02.68-3.4,5.55-3.36,6.56.04,1.01,2.67,7.21,4.11,7.68,1.29.42,3.37,0,3.44-.34,0,0,.31-1.04.29-1.46l-2.53-1.05s-1.98-3.79-2.01-4.43c0,0,1.83-.81,3.03-1.39,1.21-.58,3.92-2.69,3.87-4.03-.03-.8-.89-4.17-.89-4.17l2.17-1.35c1.76.24,6.6,4.02,6.98,4,.38-.01,4.28-3.73,5.34-4.83,1.46-1.52,1.28-2.55.97-3.01-.32-.47-.7-.77-1.46-1.05,0,0-3.93,4.56-4.53,4.69,0,0-1.47-3.85-1.68-4.18-.85-1.61-3.5-3.14-4.45-3.1-.95.04-5.7,2.16-5.74,1.28,5.07-3.78,5.73-8.18,5.73-8.18,2.6.47,5.75.11,5.75.11l2.71.84c-.02.24-.07.44-.07.7,0,3.48,2.67,7.23,6.99,7.23,1.85,0,3.31-.69,4.41-1.73.52,1.16,1.98,4.37,2.8,5.74-1.65.96-3.12,1.13-9.28,3.72-.28.13-1.56.54-2.58.5-.52,0-.67,1.7-.32,2.27.11.19.77.49,1.14.5.8.03,1.99-.45,1.99-.45l6.84-2.11s3.26.37,5.75-.11c0,0,.66,4.39,5.73,8.18-.03.87-4.78-1.25-5.74-1.28-.95-.04-3.59,1.49-4.45,3.1-.21.33-1.68,4.17-1.68,4.17-.6-.13-4.53-4.69-4.53-4.69-.75.28-1.16.57-1.46,1.05-.32.52-.49,1.49.97,3.01,1.06,1.11,4.96,4.82,5.34,4.84.38.01,5.22-3.77,6.98-4.01l2.17,1.35s-.85,3.36-.89,4.17c-.05,1.35,2.66,3.45,3.87,4.03,1.2.59,3.03,1.39,3.03,1.39-.03.64-2.01,4.43-2.01,4.43l-2.53,1.05c-.02.43.29,1.46.29,1.46.02.11.27.23.63.32.73,0,1.3,0,1.42,0,.02,0,.63,0,1.43,0,1.45-.57,4.03-6.66,4.07-7.66.04-1.01-3.38-5.88-3.35-6.56.49-1.01,1.32-1.55,1.74-3.05,0,0,1.98,1.22,5.15,2.31,1.27.05,7-3.07,7.24-9.34.23-5.84-3.78-8.55-3.69-10.78.19-4.96.27-6.61-3.18-9.27-.32,0-.11,1.16-.18,2.83-.08,1.9-3.06,4.63-2.89,7.8.24,4.57,5.31,6.01,4.55,11.97-.34,2.68-1.57,3.31-2.38,3.49-.99-.33-3.49-1.28-3.38-2.13.66-5.53-2.77-6.65-2.41-15.81.19-4.74,1.9-7.13,1.9-7.13,0,0,.5-6.73,1.38-8.1,1.02-1.6,2.87-2.52,2.87-4.97-2.4,0-4.31-.59-5.49,1.07-.46,0-3.13-.7-3.93-.72-1.18-.05-2.93,1.24-3.39,1.22-.46-.02-3.26.09-3.27.33,0,.24.11,1.73.75,1.99.64.25,3.65,1.05,4.01,1.21.36.17.88.63.88,2.24-2.29-1.33-4.28-.72-5.47-.76-.25,0-.24,2.1.4,2.12.63.02,3.29.09,5.23,1.08.14.07-.49.97-1.47,1.39-.98.42-2.53.9-2.53.9,0,0-1.41,1.56-2.37,3.18-.87-.03-2.4-2.87-3.59-5.4.09-.5.16-1,.16-1.5,0-2.53-.81-4.38-1.26-5.23.28-.23.45-.5.45-.81,0-.99-1.58-1.59-3.5-1.84-.16-1.9-.47-3.65-.92-4.78.11-.06.23-.1.33-.17.59-.44.96-1.18,1.1-2.19.21-1.56-.26-2.38-.84-2.82,0,0,.02-.01.03-.02.44-.51.62-1.25.53-2.19-.08-.81-.28-1.39-.57-1.81.42-.4.78-1.04.93-2.11.16-1.07,0-1.91-.44-2.5-.35-.46-.88-.75-1.54-.85-.65-.09-1.24.05-1.71.41-.6.45-.98,1.22-1.12,2.27-.18,1.35.17,2.22.72,2.74-.4.51-.57,1.21-.48,2.12.09.91.34,1.5.65,1.89-.47.38-.87,1.02-1.04,2.14-.15,1.02-.03,1.82.36,2.39.15.22.36.39.59.53-.79,1.24-1.51,3.24-1.84,5.05-1.51.28-2.67.82-2.67,1.72,0,.26.13.48.32.68-.25.32-.59.86-.91,1.53-3.23-1.25-4.41-1.53-5.67-2.26,1-1.69,3-6.2,3-6.2,0,0,2.34-7.92,2.5-8.61.16-.68,2.07-1.09,2.07-1.85,0-.34-.83-1.46-1.28-1.65-1.65-.55-2.42.76-2.66,1.4-.12.31-1.22,3.38-1.22,3.38,0,0-3.72,9.23-5.3,9.29-.97-1.62-2.37-3.18-2.37-3.18,0,0-1.55-.49-2.53-.9-.98-.42-1.61-1.32-1.47-1.39,1.93-.99,4.59-1.06,5.22-1.08.64-.03.65-2.13.4-2.12-1.19.04-3.18-.57-5.47.76,0-1.61.51-2.07.88-2.24.36-.17,3.37-.96,4.01-1.22.64-.25.77-1.75.76-1.99,0-.24-2.81-.35-3.27-.33-.46.02-2.22-1.27-3.4-1.22-.8.03-3.47.73-3.93.73-1.19-1.66-3.09-1.07-5.49-1.07,0,2.44,1.85,3.37,2.87,4.96.88,1.38,1.38,8.1,1.38,8.1,0,0,1.72,2.39,1.9,7.13.36,9.16-3.07,10.28-2.4,15.81.1.84-2.39,1.8-3.39,2.13-.81-.19-2.04-.81-2.38-3.49-.76-5.96,4.31-7.4,4.55-11.97.16-3.16-2.82-5.9-2.9-7.8-.07-1.67.15-2.84-.18-2.83-3.46,2.66-3.38,4.31-3.19,9.27.09,2.23-3.92,4.94-3.7,10.78ZM174.98,54.45c.16.2-.85.45-2.22.61,0-.47-.02-.94-.04-1.41,1.24.21,2.06.56,2.26.8ZM169.22,35.99c.11-.82.39-1.43.81-1.75.24-.18.53-.28.85-.28.09,0,.18,0,.26.02.45.06.8.25,1.02.54.31.41.41,1.06.28,1.91h0c-.12.81-.38,1.36-.75,1.68-.31-.15-.65-.25-1.09-.23-.3.02-.58.1-.82.22-.48-.4-.69-1.12-.56-2.12ZM171.74,42.15c-.06.07-.13.09-.2.14-.14-.04-.27-.07-.38-.09-.31-.04-.71-.05-1.11.07-.26-.25-.49-.7-.59-1.59-.07-.71.04-1.26.33-1.6,0,0,.01,0,.02-.02.19.08.39.15.59.17.11.02.23.02.37.02.26,0,.58-.05.89-.18.19.27.34.72.41,1.46.07.71-.05,1.26-.34,1.6ZM169.08,44.91c.15-1.02.51-1.52.88-1.75.27.12.55.18.82.18.05,0,.1,0,.15,0,.24-.02.44-.08.64-.16.67.33.95,1.07.79,2.23-.11.8-.38,1.36-.79,1.67-.06.05-.14.06-.21.09-.24-.38-.51-.63-.8-.63-.27,0-.57.21-.87.56-.16-.1-.3-.21-.4-.35-.28-.4-.35-1.01-.23-1.82ZM169.96,47.99c.12.03.2.09.32.1.14.02.28.03.42.03.09,0,.18-.03.27-.04.33.83.69,2.36.88,4.48-.47-.04-.95-.06-1.42-.06-.72,0-1.48.04-2.19.13.4-1.97,1.16-3.72,1.72-4.64ZM170.4,53.46c.55,0,1.05.04,1.52.08.03.5.05,1.02.06,1.59-.52.04-1.05.06-1.58.06-2.35,0-4.03-.52-4.33-.75-.3-.22,1.66-.99,4.34-.99Z"/><path d="M218.6,115.94c-.34,0-.68.05-1.06.15l-1.72.47v-1.78c0-2.21-1.96-4.07-4.27-4.07s-4.13,1.83-4.13,4.08c0,.37.05.76.15,1.15l.46,1.71h-16.25s.02-.01.03-.01c-.72,0-1.29,0-1.41,0-.01,0-.44,0-1.03,0,0,0,.02,0,.03,0l-66.46-.02-.08-85.62,1.59.27c.26.04.53.06.81.06,2.27,0,4.12-1.83,4.12-4.08s-1.83-4.07-4.08-4.07h-1.83l.52-1.75c.08-.28.11-.58.11-1.13,0-2.25-1.85-4.09-4.13-4.1-2.29,0-4.14,1.83-4.14,4.09,0,.3.05.63.17,1.03l.49,1.72h-1.8c-2.24,0-4.13,1.93-4.13,4.22s1.86,4.08,4.14,4.08c.39,0,.79-.05,1.16-.15l1.72-.46v16.2s-20.18-20.04-20.18-20.04c-2.82.67-5.59,1.47-8.31,2.39l28.5,28.29v11.02s-36.45-36.18-36.45-36.18c-2.43,1.09-4.81,2.27-7.14,3.56l43.59,43.27v10.65s-50.23-49.86-50.23-49.86c-2.12,1.42-4.17,2.93-6.17,4.52l56.4,55.99v10.94l-62.3-61.85c-1.84,1.72-3.62,3.5-5.32,5.36l62.11,61.66h-10.44s-56.41-56.01-56.41-56.01c-1.57,2.01-3.05,4.09-4.45,6.23l50.13,49.77h-10.73s-43.41-43.1-43.41-43.1c-1.27,2.33-2.43,4.72-3.5,7.17l36.18,35.92h-10.73s-28.4-28.2-28.4-28.2c-.91,2.72-1.69,5.49-2.35,8.32l20.02,19.88h-15.44s.29-1.6.29-1.6c.05-.25.08-.51.08-.78,0-2.25-1.86-4.08-4.13-4.08s-4.14,1.81-4.14,4.04v1.86l-1.78-.57c-.3-.1-.61-.11-1.12-.11-2.28,0-4.13,1.83-4.13,4.09s1.86,4.09,4.13,4.09c.3,0,.64-.06,1.05-.17l1.72-.46v1.77c0,2.21,1.95,4.08,4.27,4.08,1.11,0,2.15-.43,2.93-1.21.78-.77,1.2-1.8,1.2-2.89,0-.36-.05-.74-.15-1.1l-.51-1.74,44.82-.02h40.63s.02,40.41.02,40.41c0,0,0,0,0,0,0,.32,0,.65,0,.97,0,0,0,0,0,0l.02,42.45-1.64-.32c-.15-.03-.39-.03-.63-.03h-.49c-2.28,0-4.14,1.83-4.14,4.09s1.83,4.09,4.09,4.09h1.81l-.5,1.73c-.1.35-.1.71-.1,1.15,0,2.25,1.85,4.09,4.13,4.09s4.14-1.83,4.14-4.09c0-.28-.06-.63-.17-1.05l-.45-1.7h1.77c2.24,0,4.12-1.93,4.12-4.21s-1.85-4.09-4.13-4.09c-.3,0-.34,0-.62.06l-1.97.42v-83.96l77.86.07s0,0,0,0c.03,0,.06,0,.08,0,0,0,0,0,0,0h.75c.26,0,.6,0,.98,0h5.24s-.34,1.63-.34,1.63c-.05.24-.07.49-.07.75,0,2.25,1.85,4.08,4.13,4.08s4.13-1.81,4.13-4.04v-1.82l1.76.52c.3.08.59.11,1.15.11,2.27,0,4.12-1.83,4.12-4.09s-1.85-4.09-4.12-4.09Z"/><path d="M120.1,0C53.88,0,0,53.52,0,119.31s53.88,119.31,120.1,119.31,120.1-53.52,120.1-119.31S186.33,0,120.1,0ZM120.1,234.22c-63.78,0-115.67-51.55-115.67-114.91S56.32,4.4,120.1,4.4s115.67,51.55,115.67,114.91-51.89,114.91-115.67,114.91Z"/></g></svg>